<svg xmlns="http://www.w3.org/2000/svg" width="20.96" height="14.738" viewBox="0 0 20.96 14.738"><path d="M21.572,6.806a2.634,2.634,0,0,0-1.853-1.865C18.084,4.5,11.53,4.5,11.53,4.5s-6.554,0-8.189.441A2.634,2.634,0,0,0,1.488,6.806a27.628,27.628,0,0,0-.438,5.078,27.628,27.628,0,0,0,.438,5.078A2.594,2.594,0,0,0,3.341,18.8c1.635.441,8.189.441,8.189.441s6.554,0,8.189-.441a2.594,2.594,0,0,0,1.853-1.835,27.628,27.628,0,0,0,.438-5.078,27.628,27.628,0,0,0-.438-5.078ZM9.386,15V8.767l5.478,3.117L9.386,15Z" transform="translate(-1.05 -4.5)" fill="#fff"/></svg>