<svg xmlns="http://www.w3.org/2000/svg" width="24.773" height="24.75" viewBox="0 0 24.773 24.75"><path d="M26.08,10.234v-.062a12.411,12.411,0,0,0-23.308,0s0,0,0,.062a12.237,12.237,0,0,0,0,8.34s0,0,0,.062a12.411,12.411,0,0,0,23.308,0v-.062a12.237,12.237,0,0,0,0-8.34ZM4.8,16.886a9.706,9.706,0,0,1,0-4.964H7.1a20.764,20.764,0,0,0,0,4.964Zm1.018,2.482H7.551a15.08,15.08,0,0,0,1.241,3.19,9.929,9.929,0,0,1-2.979-3.19ZM7.551,9.44H5.813A9.929,9.929,0,0,1,8.754,6.25a15.079,15.079,0,0,0-1.2,3.19Zm5.61,14.521a7.869,7.869,0,0,1-3.016-4.592H13.16Zm0-7.074H9.611a17.822,17.822,0,0,1,0-4.964h3.55Zm0-7.447H10.145A7.869,7.869,0,0,1,13.16,4.848Zm9.83,0H21.252a15.08,15.08,0,0,0-1.241-3.19A9.929,9.929,0,0,1,22.99,9.44ZM15.643,4.848A7.869,7.869,0,0,1,18.659,9.44H15.643Zm0,19.113V19.369h3.016A7.869,7.869,0,0,1,15.643,23.961Zm3.55-7.074h-3.55V11.922h3.55A17.822,17.822,0,0,1,19.192,16.886Zm.856,5.672a15.08,15.08,0,0,0,1.241-3.19h1.738A9.929,9.929,0,0,1,20.049,22.558Zm3.959-5.672H21.7a20.057,20.057,0,0,0,.149-2.482,20.2,20.2,0,0,0-.149-2.482h2.308A9.705,9.705,0,0,1,24.008,16.886Z" transform="translate(-2.04 -2.029)" fill="#d1a461"/></svg>